<svg id="OBJECTS" xmlns="http://www.w3.org/2000/svg" viewBox="0 0 227.46 248.45"><defs><style>.cls-1{fill:#06f;}.cls-2{fill:#242a37;}.cls-3{opacity:0.7;}</style></defs><path class="cls-1" d="M265.14,97.76v9.41a44.81,44.81,0,0,1,10.05,79.38A8.49,8.49,0,0,1,262,179.42V168H238v11.2a8.5,8.5,0,0,1-13.24,7.08,44.79,44.79,0,0,1,10.14-79V97.84a53.78,53.78,0,0,0-38.5,51.56c0,29.29,27.86,67.83,43.48,87.13a13.3,13.3,0,0,0,20.64,0c15.63-19.16,43.42-57.43,43.42-87.17A53.79,53.79,0,0,0,265.14,97.76Z" transform="translate(-136.33 -69.55)"/><path class="cls-1" d="M250,243.38" transform="translate(-136.33 -69.55)"/><path class="cls-1" d="M255.71,227.84A6,6,0,0,1,250,232h0a6,6,0,0,1-5.71-4.18L238,219.3V95.82a47.85,47.85,0,0,1,1.37-11.42,45.76,45.76,0,0,1,4-10.56h0a7.31,7.31,0,0,1,13.32,0h0a45.76,45.76,0,0,1,4,10.56A47.85,47.85,0,0,1,262,95.82V219.3Z" transform="translate(-136.33 -69.55)"/><path class="cls-1" d="M258.71,113.38l61.13,46.7a9.76,9.76,0,0,1,3.82,7.74v4.67l-65-19.7Z" transform="translate(-136.33 -69.55)"/><path class="cls-1" d="M241.29,113.38l-61.13,46.7a9.76,9.76,0,0,0-3.82,7.74v4.67l64.95-19.7Z" transform="translate(-136.33 -69.55)"/><path class="cls-1" d="M187.32,164.37h0a4.14,4.14,0,0,0,4.14-4.15v-7.55a4.14,4.14,0,0,0-4.14-4.15h0a4.15,4.15,0,0,0-4.15,4.15v7.55A4.15,4.15,0,0,0,187.32,164.37Z" transform="translate(-136.33 -69.55)"/><path class="cls-1" d="M312.68,164.37h0a4.15,4.15,0,0,0,4.15-4.15v-7.55a4.15,4.15,0,0,0-4.15-4.15h0a4.14,4.14,0,0,0-4.14,4.15v7.55A4.14,4.14,0,0,0,312.68,164.37Z" transform="translate(-136.33 -69.55)"/><path class="cls-1" d="M222.75,137.76h0a4.14,4.14,0,0,0,4.15-4.14v-7.55a4.15,4.15,0,0,0-4.15-4.15h0a4.14,4.14,0,0,0-4.14,4.15v7.55A4.14,4.14,0,0,0,222.75,137.76Z" transform="translate(-136.33 -69.55)"/><path class="cls-1" d="M277.25,137.76h0a4.14,4.14,0,0,0,4.14-4.14v-7.55a4.14,4.14,0,0,0-4.14-4.15h0a4.15,4.15,0,0,0-4.15,4.15v7.55A4.14,4.14,0,0,0,277.25,137.76Z" transform="translate(-136.33 -69.55)"/><path class="cls-2" d="M139,281.32a12.54,12.54,0,0,0,8.37,3.4c2.43,0,4.85-1.27,4.85-3.63,0-5.37-15-4.28-15-13.8,0-5.31,4.73-8.31,10.56-8.31,6.41,0,9.41,3.23,9.41,3.23L155,266.42a10.67,10.67,0,0,0-7.21-2.59c-2.43,0-4.79,1-4.79,3.58,0,5.25,15,4.09,15,13.68,0,4.84-4.15,8.48-10.56,8.48a15.69,15.69,0,0,1-11.08-4.27Z" transform="translate(-136.33 -69.55)"/><path class="cls-2" d="M165.76,264.58H162v-4.51h4v-8.42h5.42v8.42h7v4.51h-7v13c0,5.83,4.1,6.58,6.24,6.58a6.34,6.34,0,0,0,1.32-.12v5a14.61,14.61,0,0,1-2,.12c-3.75,0-11.2-1.15-11.2-10.91Z" transform="translate(-136.33 -69.55)"/><path class="cls-2" d="M185.21,259.67h5.43v5.08a20.1,20.1,0,0,1-.12,2.19h.12c1.33-4.27,4.73-7.62,9.24-7.62a9.51,9.51,0,0,1,1.44.12V265a8.22,8.22,0,0,0-1.62-.17c-3.58,0-6.87,2.54-8.2,6.87a18,18,0,0,0-.69,5.25v11.95h-5.6Z" transform="translate(-136.33 -69.55)"/><path class="cls-2" d="M222.1,270.64h1.27v-.52c0-4.79-2.72-6.41-6.41-6.41a14.82,14.82,0,0,0-8.14,2.83l-2.31-4.1A18.32,18.32,0,0,1,217.42,259c7.39,0,11.55,4,11.55,11.43v18.47h-5.2v-2.77a21.07,21.07,0,0,1,.12-2.31h-.12a10.11,10.11,0,0,1-9.35,5.77c-5,0-9.93-3.06-9.93-8.89C204.49,271,217.19,270.64,222.1,270.64Zm-6.47,14.43c4.73,0,7.79-5,7.79-9.29v-.93H222c-4.21,0-11.83.29-11.83,5.54C210.15,282.76,212,285.07,215.63,285.07Z" transform="translate(-136.33 -69.55)"/><path class="cls-2" d="M233.93,259.67h5.94l6.06,20.49c.46,1.5.7,3.12.75,3.12h.12a30.77,30.77,0,0,1,.75-3.12l6.35-20.43H259l6.29,20.43c.46,1.5.81,3.12.81,3.12h.11a23.54,23.54,0,0,1,.69-3.12l6.12-20.49H279l-9.41,29.21h-6.17l-6.07-18.76c-.46-1.5-.8-3.18-.8-3.18h-.12s-.35,1.68-.81,3.18l-6,18.76h-6.24Z" transform="translate(-136.33 -69.55)"/><path class="cls-2" d="M284.31,248.13h5.6v14.95c0,1.38-.11,2.42-.11,2.42h.11a11.8,11.8,0,0,1,10.8-6.52c6.86,0,10,3.75,10,11.2v18.7h-5.6V271.45c0-4.1-.87-7.33-5.54-7.33a9.67,9.67,0,0,0-9.24,7.21,13.93,13.93,0,0,0-.46,3.87v13.68h-5.6Z" transform="translate(-136.33 -69.55)"/><path class="cls-2" d="M334.35,270.64h1.28v-.52c0-4.79-2.72-6.41-6.41-6.41a14.78,14.78,0,0,0-8.14,2.83l-2.31-4.1A18.32,18.32,0,0,1,329.68,259c7.39,0,11.54,4,11.54,11.43v18.47H336v-2.77a23,23,0,0,1,.11-2.31H336a10.11,10.11,0,0,1-9.35,5.77c-5,0-9.93-3.06-9.93-8.89C316.75,271,329.45,270.64,334.35,270.64Zm-6.46,14.43c4.73,0,7.79-5,7.79-9.29v-.93h-1.44c-4.21,0-11.83.29-11.83,5.54C322.41,282.76,324.25,285.07,327.89,285.07Z" transform="translate(-136.33 -69.55)"/><path class="cls-2" d="M350.63,264.58h-3.81v-4.51h4v-8.42h5.43v8.42h7v4.51h-7v13c0,5.83,4.1,6.58,6.23,6.58a6.51,6.51,0,0,0,1.33-.12v5a14.79,14.79,0,0,1-2,.12c-3.75,0-11.2-1.15-11.2-10.91Z" transform="translate(-136.33 -69.55)"/><g class="cls-3"><path class="cls-2" d="M164.7,302.16h3.92a7.19,7.19,0,0,1,2.51.41,5.32,5.32,0,0,1,1.94,1.19,5.49,5.49,0,0,1,1.24,1.91,7.81,7.81,0,0,1,0,5.17,5.44,5.44,0,0,1-1.24,1.92,5.32,5.32,0,0,1-1.94,1.19,7.42,7.42,0,0,1-2.51.41H164.7Zm3.8,11.12a6,6,0,0,0,2.05-.32,4.17,4.17,0,0,0,1.58-1,4.4,4.4,0,0,0,1-1.58,6.29,6.29,0,0,0,.35-2.17,6.17,6.17,0,0,0-.35-2.15,4.19,4.19,0,0,0-1-1.57,4.46,4.46,0,0,0-1.58-1,6,6,0,0,0-2.05-.32h-2.6v10Z" transform="translate(-136.33 -69.55)"/><path class="cls-2" d="M177,305.63h1.2v5.24a7.74,7.74,0,0,0,.06,1,2.26,2.26,0,0,0,.25.82,1.42,1.42,0,0,0,.57.57,2.11,2.11,0,0,0,1,.21,2.86,2.86,0,0,0,1.35-.31,3.17,3.17,0,0,0,1-.8,3.69,3.69,0,0,0,.64-1.17,4.19,4.19,0,0,0,.23-1.37v-4.18h1.2v8.73h-1.18v-1.64c0-.09,0-.16,0-.22a1.55,1.55,0,0,1,0-.21h0a3.05,3.05,0,0,1-.41.72,3.9,3.9,0,0,1-1.71,1.32,3.43,3.43,0,0,1-1.31.24,2.72,2.72,0,0,1-2.25-.84,3.92,3.92,0,0,1-.69-2.55Z" transform="translate(-136.33 -69.55)"/><path class="cls-2" d="M191.62,302.16h1.18V312a2.25,2.25,0,0,0,.09.7.86.86,0,0,0,.23.4.79.79,0,0,0,.32.18,1.39,1.39,0,0,0,.35,0h.12a.47.47,0,0,0,.16,0v1.06a1.25,1.25,0,0,1-.19,0h-.25a3.78,3.78,0,0,1-.61-.06,1.52,1.52,0,0,1-.65-.29,1.74,1.74,0,0,1-.53-.65,2.43,2.43,0,0,1-.22-1.14Z" transform="translate(-136.33 -69.55)"/><path class="cls-2" d="M195.84,302.16h1.3v1.47h-1.3Zm0,3.47h1.2v8.73h-1.2Zm0,10h1.13v1.1h-1.13Z" transform="translate(-136.33 -69.55)"/><path class="cls-2" d="M199.29,310a4.79,4.79,0,0,1,.35-1.84,4.31,4.31,0,0,1,2.41-2.4,4.65,4.65,0,0,1,1.8-.34,5.07,5.07,0,0,1,1.74.31,3.65,3.65,0,0,1,1.46,1l-.61.88a3.52,3.52,0,0,0-1.14-.77,3.47,3.47,0,0,0-1.41-.3,3.34,3.34,0,0,0-1.34.26,3.2,3.2,0,0,0-1.08.72,3.09,3.09,0,0,0-.72,1.1,3.71,3.71,0,0,0-.26,1.43,3.53,3.53,0,0,0,.26,1.4,3,3,0,0,0,.73,1.1,3.24,3.24,0,0,0,1.09.72,3.38,3.38,0,0,0,1.35.26,3.9,3.9,0,0,0,1.52-.31,3.43,3.43,0,0,0,1.28-.89l.54.89a3.9,3.9,0,0,1-1.49,1,5,5,0,0,1-1.92.38,4.84,4.84,0,0,1-1.8-.33,4.17,4.17,0,0,1-1.45-.94,4.38,4.38,0,0,1-1-1.44A4.82,4.82,0,0,1,199.29,310Z" transform="translate(-136.33 -69.55)"/><path class="cls-2" d="M209.29,302.16h1.19v5.08q0,.12,0,.21a1.49,1.49,0,0,0,0,.21h0a2.82,2.82,0,0,1,.4-.69,4,4,0,0,1,1.75-1.31,3.5,3.5,0,0,1,1.33-.24,3.68,3.68,0,0,1,1.38.23,2.16,2.16,0,0,1,.9.66,2.67,2.67,0,0,1,.5,1.06,5.77,5.77,0,0,1,.16,1.44v5.55h-1.2v-5.24a7.74,7.74,0,0,0-.06-1,2.38,2.38,0,0,0-.26-.83,1.49,1.49,0,0,0-.58-.56,2.06,2.06,0,0,0-1-.21,3.11,3.11,0,0,0-1.29.27,3.26,3.26,0,0,0-1.05.75,3.67,3.67,0,0,0-.71,1.14,4.06,4.06,0,0,0-.26,1.45v4.22h-1.19Z" transform="translate(-136.33 -69.55)"/><path class="cls-2" d="M223.34,310a4.79,4.79,0,0,1,.35-1.84,4.34,4.34,0,0,1,1-1.45,4.41,4.41,0,0,1,1.44-.95,4.7,4.7,0,0,1,1.81-.34,5,5,0,0,1,1.73.31,3.58,3.58,0,0,1,1.46,1l-.61.88a3.58,3.58,0,0,0-1.13-.77,3.52,3.52,0,0,0-1.42-.3,3.29,3.29,0,0,0-1.33.26,3.24,3.24,0,0,0-1.09.72,3.09,3.09,0,0,0-.72,1.1,3.91,3.91,0,0,0-.26,1.43,3.71,3.71,0,0,0,.26,1.4,3.12,3.12,0,0,0,.73,1.1,3.34,3.34,0,0,0,1.09.72,3.4,3.4,0,0,0,1.36.26,3.94,3.94,0,0,0,1.52-.31,3.48,3.48,0,0,0,1.27-.89l.54.89a3.86,3.86,0,0,1-1.48,1,5,5,0,0,1-1.92.38,4.89,4.89,0,0,1-1.81-.33,4.23,4.23,0,0,1-1.44-.94,4.4,4.4,0,0,1-1-1.44A4.82,4.82,0,0,1,223.34,310Z" transform="translate(-136.33 -69.55)"/><path class="cls-2" d="M233.34,302.16h1.2V307c0,.1,0,.2,0,.29s0,.15,0,.21a1.49,1.49,0,0,0,0,.21h0a2.89,2.89,0,0,1,.41-.69,3.81,3.81,0,0,1,.72-.73,3.88,3.88,0,0,1,1-.58,3.52,3.52,0,0,1,1.34-.24,3.67,3.67,0,0,1,1.37.23,2.16,2.16,0,0,1,.9.66,2.67,2.67,0,0,1,.5,1.06,5.77,5.77,0,0,1,.16,1.44v5.55h-1.2v-5.24a7.74,7.74,0,0,0-.06-1,2.19,2.19,0,0,0-.26-.83,1.43,1.43,0,0,0-.58-.56,2,2,0,0,0-1-.21,3.11,3.11,0,0,0-1.29.27,3.22,3.22,0,0,0-1,.75,3.49,3.49,0,0,0-.71,1.14,3.85,3.85,0,0,0-.26,1.45v4.22h-1.2Z" transform="translate(-136.33 -69.55)"/><path class="cls-2" d="M243.06,310a4.57,4.57,0,0,1,.35-1.79,4.65,4.65,0,0,1,1-1.44,4.6,4.6,0,0,1,1.47-1,4.75,4.75,0,0,1,3.58,0,4.48,4.48,0,0,1,2.45,2.39,4.41,4.41,0,0,1,.37,1.79,4.66,4.66,0,0,1-1.36,3.3,4.29,4.29,0,0,1-1.46,1,4.75,4.75,0,0,1-3.58,0,4.33,4.33,0,0,1-1.47-1,4.58,4.58,0,0,1-1.33-3.3Zm1.2,0a3.8,3.8,0,0,0,.26,1.41,3.62,3.62,0,0,0,.73,1.12,3.33,3.33,0,0,0,1.07.73,3.26,3.26,0,0,0,1.33.27,3.32,3.32,0,0,0,1.32-.27,3.42,3.42,0,0,0,1.09-.73,3.59,3.59,0,0,0,1-2.53,3.47,3.47,0,0,0-.27-1.38,3.77,3.77,0,0,0-.73-1.1,3.24,3.24,0,0,0-1.09-.72,3.31,3.31,0,0,0-1.32-.26,3.25,3.25,0,0,0-1.33.26,3.16,3.16,0,0,0-1.07.72,3.77,3.77,0,0,0-.73,1.1A3.65,3.65,0,0,0,244.26,310Z" transform="translate(-136.33 -69.55)"/><path class="cls-2" d="M258.82,305.63H260V307c0,.09,0,.18,0,.27s0,.16,0,.22l0,.21h0a3.24,3.24,0,0,1,.4-.69,3.88,3.88,0,0,1,.72-.75,4.34,4.34,0,0,1,1-.59,3.44,3.44,0,0,1,1.36-.25,3.72,3.72,0,0,1,1.38.23,2.16,2.16,0,0,1,.9.66,2.67,2.67,0,0,1,.5,1.06,5.77,5.77,0,0,1,.16,1.44v5.55h-1.2v-5.24a7.74,7.74,0,0,0-.06-1,2.38,2.38,0,0,0-.26-.83,1.49,1.49,0,0,0-.58-.56,2.06,2.06,0,0,0-1-.21,3.15,3.15,0,0,0-1.3.27,3.26,3.26,0,0,0-1,.75,3.73,3.73,0,0,0-1,2.54v4.27h-1.19Z" transform="translate(-136.33 -69.55)"/><path class="cls-2" d="M269.8,316.34a5.87,5.87,0,0,0,1.14.42,4.87,4.87,0,0,0,1.24.17,4.2,4.2,0,0,0,1.2-.16,2.55,2.55,0,0,0,1-.48,2.09,2.09,0,0,0,.64-.84,2.93,2.93,0,0,0,.24-1.25v-1.11l0-.21a1.06,1.06,0,0,1,0-.19h0a3,3,0,0,1-2.78,1.62,3.71,3.71,0,0,1-1.59-.33,3.61,3.61,0,0,1-1.23-.93,4.35,4.35,0,0,1-.79-1.42,6.25,6.25,0,0,1,0-3.6,3.91,3.91,0,0,1,.75-1.38,3.54,3.54,0,0,1,1.19-.91,3.78,3.78,0,0,1,1.58-.32,4.28,4.28,0,0,1,.87.09,3.5,3.5,0,0,1,.81.27,2.77,2.77,0,0,1,.7.47,2.61,2.61,0,0,1,.52.7h0s0,0,0-.07a.62.62,0,0,1,0-.23v-1h1.14v8.52a4.07,4.07,0,0,1-.35,1.77,3.42,3.42,0,0,1-.94,1.2,3.77,3.77,0,0,1-1.34.68,6.31,6.31,0,0,1-1.57.2,6.1,6.1,0,0,1-1.47-.18,5.65,5.65,0,0,1-1.37-.53Zm0-6.54a4.51,4.51,0,0,0,.21,1.42,3.24,3.24,0,0,0,.58,1.09,2.56,2.56,0,0,0,.91.68,2.78,2.78,0,0,0,1.17.24,3,3,0,0,0,1-.17,2.21,2.21,0,0,0,.83-.57,2.92,2.92,0,0,0,.57-1.05,5.31,5.31,0,0,0,.21-1.62,4.88,4.88,0,0,0-.22-1.59,2.64,2.64,0,0,0-.59-1,2.14,2.14,0,0,0-.87-.56,3.81,3.81,0,0,0-1.08-.16,2.41,2.41,0,0,0-2,.87A3.77,3.77,0,0,0,269.78,309.8Z" transform="translate(-136.33 -69.55)"/><path class="cls-2" d="M279.12,305.63h1.2v5.24a7.74,7.74,0,0,0,.06,1,2.26,2.26,0,0,0,.25.82,1.42,1.42,0,0,0,.57.57,2.11,2.11,0,0,0,1,.21,2.79,2.79,0,0,0,1.34-.31,3.21,3.21,0,0,0,1-.8,3.69,3.69,0,0,0,.64-1.17,4.19,4.19,0,0,0,.23-1.37v-4.18h1.11a.69.69,0,0,0,.49-.29,1.7,1.7,0,0,0,.17-1v-.31h1.06v.35a3.29,3.29,0,0,1-.15,1.09,1.83,1.83,0,0,1-.38.65,1.24,1.24,0,0,1-.53.33,2.48,2.48,0,0,1-.57.11v7.76h-1.18v-1.64c0-.09,0-.16,0-.22l0-.21h0a3.45,3.45,0,0,1-.41.72,3.79,3.79,0,0,1-.71.74,3.66,3.66,0,0,1-1,.58,3.36,3.36,0,0,1-1.31.24,2.72,2.72,0,0,1-2.24-.84,3.92,3.92,0,0,1-.69-2.55Z" transform="translate(-136.33 -69.55)"/><path class="cls-2" d="M289.07,310a4.4,4.4,0,0,1,.35-1.79,4.49,4.49,0,0,1,1-1.44,4.67,4.67,0,0,1,3.26-1.3,4.25,4.25,0,0,1,.71.06c.23,0,.45.09.67.15h1a.89.89,0,0,0,.44-.09.62.62,0,0,0,.3-.35,2,2,0,0,0,.1-.82v-.31h1.06v.35a3.48,3.48,0,0,1-.11.93,2.06,2.06,0,0,1-.27.63,1.24,1.24,0,0,1-.39.37,1.38,1.38,0,0,1-.46.18,4.42,4.42,0,0,1,1.14,1.49,4.49,4.49,0,0,1,.41,1.93,4.6,4.6,0,0,1-.36,1.83,4.64,4.64,0,0,1-1,1.47,4.29,4.29,0,0,1-1.46,1,4.78,4.78,0,0,1-3.59,0,4.39,4.39,0,0,1-1.46-1,4.58,4.58,0,0,1-1.33-3.3Zm1.19,0a3.64,3.64,0,0,0,1,2.53,3.38,3.38,0,0,0,1.08.73,3.26,3.26,0,0,0,1.33.27,3.32,3.32,0,0,0,1.32-.27,3.42,3.42,0,0,0,1.09-.73,3.59,3.59,0,0,0,1-2.53,3.47,3.47,0,0,0-.27-1.38,3.77,3.77,0,0,0-.73-1.1,3.24,3.24,0,0,0-1.09-.72,3.31,3.31,0,0,0-1.32-.26,3.25,3.25,0,0,0-1.33.26,3.2,3.2,0,0,0-1.08.72,3.74,3.74,0,0,0-.72,1.1A3.47,3.47,0,0,0,290.26,310Zm2-7.56h1.37l1.2,2.07h-1.08Z" transform="translate(-136.33 -69.55)"/><path class="cls-2" d="M300.43,302.16h1.3v1.47h-1.3Zm.05,3.47h1.2v8.73h-1.2Z" transform="translate(-136.33 -69.55)"/><path class="cls-2" d="M307.18,302.16h1.29l3.38,9.27c.06.16.11.33.17.51s.1.35.14.51.1.36.16.54h0c.06-.18.11-.35.16-.54s.1-.33.15-.51.11-.35.16-.51l3.39-9.27h1.28L313,314.36H311.7Z" transform="translate(-136.33 -69.55)"/><path class="cls-2" d="M319.17,302.16h1.31v1.47h-1.31Zm.06,3.47h1.19v8.73h-1.19Z" transform="translate(-136.33 -69.55)"/><path class="cls-2" d="M322.63,310a5.05,5.05,0,0,1,.35-1.92,4.4,4.4,0,0,1,.92-1.44,3.91,3.91,0,0,1,1.38-.91,4.63,4.63,0,0,1,1.67-.31,3.79,3.79,0,0,1,1.59.32,3.2,3.2,0,0,1,1.13.88,3.86,3.86,0,0,1,.69,1.28,4.93,4.93,0,0,1,.23,1.55v.29l0,.3h-6.7a3.78,3.78,0,0,0,.3,1.47,3.36,3.36,0,0,0,.73,1.09,3.22,3.22,0,0,0,1.07.67,3.81,3.81,0,0,0,2.71-.06,4.09,4.09,0,0,0,1.23-.76l.54.9a4.58,4.58,0,0,1-1.49.89,5,5,0,0,1-1.74.33,4.7,4.7,0,0,1-1.81-.34,4.53,4.53,0,0,1-1.46-.94,4.23,4.23,0,0,1-1-1.44A4.84,4.84,0,0,1,322.63,310Zm6.77-.9a3.8,3.8,0,0,0-.24-1.19,2.51,2.51,0,0,0-.53-.85,2.26,2.26,0,0,0-.79-.5,2.59,2.59,0,0,0-.92-.17,3,3,0,0,0-1.05.18,2.71,2.71,0,0,0-.9.52,3.22,3.22,0,0,0-.68.85,3.6,3.6,0,0,0-.38,1.16Zm-3.11-6.7h1.3l1.46,2.07h-1.14l-.94-1.39h0l-.93,1.39h-1.15Zm.09,13.24h1.11v1.1h-1.11Z" transform="translate(-136.33 -69.55)"/><path class="cls-2" d="M333.13,306.69H332v-1h1.17v-2.48h1.16v2.48h2.2v1h-2.2v4.36a2.73,2.73,0,0,0,.22,1.21,1.92,1.92,0,0,0,.52.7,1.68,1.68,0,0,0,.64.32,2.7,2.7,0,0,0,.6.07h.18a.94.94,0,0,0,.22,0v1.06a1.18,1.18,0,0,1-.21,0h-.3a4.64,4.64,0,0,1-.9-.1,2.38,2.38,0,0,1-1-.43,2.67,2.67,0,0,1-.81-1,3.71,3.71,0,0,1-.34-1.74Z" transform="translate(-136.33 -69.55)"/></g></svg>